<?xml version="1.0" standalone="no"?>
<!DOCTYPE svg PUBLIC "-//W3C//DTD SVG 20010904//EN"
 "http://www.w3.org/TR/2001/REC-SVG-20010904/DTD/svg10.dtd">
<svg version="1.0" xmlns="http://www.w3.org/2000/svg"
 width="3240.000000pt" height="3240.000000pt" viewBox="0 0 3240.000000 3240.000000"
 preserveAspectRatio="xMidYMid meet">

<g transform="translate(0.000000,3240.000000) scale(0.100000,-0.100000)"
fill="#000000" stroke="none">
<path d="M27303 32213 l-63 -4 0 -38 0 -38 -97 -7 c-123 -8 -190 -24 -196 -46
-3 -11 -18 -20 -38 -23 -19 -4 -51 -9 -71 -13 -28 -4 -38 -11 -40 -27 -3 -19
-13 -23 -78 -32 l-75 -10 -5 -39 c-5 -40 -16 -51 -62 -61 -19 -4 -28 -12 -28
-25 0 -16 -7 -20 -32 -20 -18 0 -42 -7 -52 -15 -11 -8 -28 -15 -38 -15 -11 0
-18 -7 -18 -18 0 -25 -19 -42 -47 -42 -20 0 -23 -5 -23 -38 0 -47 -14 -62 -60
-62 -32 0 -37 -4 -45 -32 -8 -26 -16 -34 -37 -36 -21 -3 -28 -9 -28 -26 0 -27
-18 -46 -42 -46 -12 0 -18 -8 -18 -23 0 -13 -4 -27 -9 -32 -5 -6 -11 -28 -13
-50 -3 -38 -5 -40 -38 -43 -44 -4 -58 -16 -62 -50 -2 -19 -10 -28 -25 -30 -16
-2 -23 -10 -23 -25 0 -12 -7 -31 -15 -41 -8 -11 -15 -35 -15 -53 0 -26 -4 -33
-20 -33 -13 0 -22 -9 -26 -27 -3 -16 -7 -33 -9 -40 -2 -6 -23 -13 -47 -15 -40
-3 -43 -5 -46 -33 -2 -16 -8 -34 -13 -39 -5 -6 -9 -27 -9 -47 0 -31 -4 -38
-22 -41 -16 -2 -24 -11 -26 -28 -5 -33 -20 -50 -44 -50 -19 0 -22 -4 -32 -52
-6 -25 -11 -28 -46 -28 -38 0 -40 -1 -40 -32 0 -55 -25 -112 -52 -118 -17 -4
-24 -14 -28 -40 -4 -29 -10 -36 -32 -38 -26 -3 -28 -7 -28 -47 0 -24 -4 -47
-10 -50 -5 -3 -10 -15 -10 -25 0 -14 -9 -20 -36 -22 -38 -3 -49 -14 -58 -60
-4 -18 -13 -28 -29 -30 -18 -2 -23 -10 -25 -43 -4 -46 -17 -65 -43 -65 -13 0
-19 -7 -19 -23 0 -13 -4 -27 -9 -32 -5 -6 -11 -21 -13 -35 -2 -16 -11 -26 -28
-30 -22 -5 -26 -13 -30 -55 l-5 -50 -45 -5 c-41 -5 -45 -8 -50 -35 -3 -18 -14
-34 -28 -40 -12 -5 -22 -17 -22 -26 0 -9 -7 -22 -15 -29 -8 -7 -15 -23 -15
-36 0 -17 -6 -24 -19 -24 -26 0 -39 -19 -43 -65 -3 -39 -4 -40 -45 -43 -35 -3
-43 -7 -43 -23 0 -32 -19 -59 -40 -59 -12 0 -20 -7 -20 -17 0 -10 -7 -27 -15
-37 -8 -11 -15 -37 -15 -58 0 -33 -3 -38 -24 -38 -24 0 -36 -16 -36 -50 0 -15
-9 -19 -42 -22 -37 -3 -43 -6 -46 -28 -5 -33 -20 -50 -43 -50 -15 0 -19 -8
-19 -38 0 -38 -23 -72 -48 -72 -7 0 -12 -8 -12 -19 0 -10 -7 -24 -15 -31 -8
-7 -15 -23 -15 -36 0 -21 -5 -24 -39 -24 -46 0 -58 -13 -63 -65 -2 -32 -7 -40
-28 -45 -18 -4 -26 -14 -30 -35 -4 -21 -12 -31 -30 -35 -17 -4 -26 -14 -28
-30 -6 -38 -21 -50 -63 -50 -38 0 -39 -1 -39 -38 0 -41 -14 -62 -42 -62 -11 0
-18 -7 -18 -18 0 -10 -7 -27 -15 -38 -8 -10 -15 -27 -15 -36 0 -11 -8 -18 -19
-18 -26 0 -39 -19 -43 -65 -3 -38 -5 -40 -42 -45 -35 -4 -41 -9 -48 -37 -6
-25 -14 -32 -36 -35 -21 -2 -28 -9 -32 -33 -4 -21 -12 -31 -30 -35 -21 -5 -26
-13 -28 -45 -5 -52 -17 -65 -63 -65 -34 0 -39 -3 -39 -23 0 -28 -17 -47 -42
-47 -11 0 -18 -7 -18 -19 0 -10 -7 -24 -15 -31 -8 -7 -15 -23 -15 -36 0 -18
-5 -24 -23 -24 -33 0 -47 -18 -47 -61 0 -37 -1 -38 -42 -41 -39 -3 -44 -6 -53
-35 -5 -20 -16 -33 -26 -33 -20 0 -35 -17 -41 -45 -2 -11 -12 -21 -23 -23 -34
-7 -45 -23 -45 -63 0 -35 -3 -39 -25 -39 -19 0 -26 -7 -33 -32 -7 -30 -12 -33
-53 -38 -40 -5 -44 -8 -49 -35 -4 -24 -11 -31 -35 -35 -27 -5 -30 -9 -35 -50
-4 -36 -9 -45 -29 -50 -24 -5 -34 -18 -45 -52 -4 -12 -16 -18 -38 -18 -42 0
-55 -9 -59 -40 -3 -19 -11 -26 -34 -30 -27 -5 -30 -9 -35 -50 -4 -37 -9 -46
-27 -48 -25 -4 -39 -19 -45 -47 -2 -16 -13 -21 -48 -25 -40 -4 -45 -8 -48 -32
-3 -21 -9 -28 -26 -28 -32 0 -46 -19 -46 -62 0 -33 -3 -38 -23 -38 -28 0 -47
-17 -47 -42 0 -14 -8 -18 -33 -18 -40 0 -77 -24 -77 -51 0 -12 -7 -19 -19 -19
-10 0 -24 -7 -31 -15 -7 -8 -21 -15 -31 -15 -15 0 -19 -7 -19 -33 0 -43 -26
-67 -73 -67 -33 0 -37 -3 -37 -25 0 -19 -7 -26 -32 -33 -23 -6 -34 -16 -38
-33 -4 -17 -14 -25 -35 -29 -27 -5 -30 -10 -35 -50 -5 -44 -6 -45 -45 -48 -46
-4 -65 -17 -65 -43 0 -13 -7 -19 -23 -19 -28 0 -47 -17 -47 -42 0 -11 -7 -18
-18 -18 -10 0 -27 -7 -38 -15 -10 -8 -36 -15 -56 -15 -30 0 -38 -4 -38 -18 0
-25 -19 -42 -47 -42 -20 0 -23 -5 -23 -39 0 -42 -12 -57 -50 -63 -16 -2 -26
-11 -30 -27 -4 -17 -15 -27 -38 -33 -25 -7 -32 -14 -32 -33 0 -23 -4 -25 -44
-25 -25 0 -48 -4 -51 -10 -3 -5 -17 -10 -30 -10 -21 0 -24 -5 -27 -42 -3 -39
-6 -44 -38 -54 -23 -8 -36 -19 -40 -35 -5 -20 -13 -25 -55 -29 -42 -4 -50 -8
-53 -27 -2 -14 -10 -23 -21 -23 -9 0 -26 -7 -37 -15 -10 -8 -29 -15 -41 -15
-20 0 -23 -5 -23 -39 0 -43 -10 -51 -64 -51 -36 0 -56 -15 -56 -42 0 -10 -7
-18 -15 -18 -37 0 -95 -26 -95 -42 0 -23 -16 -31 -70 -38 -44 -5 -45 -6 -48
-43 -2 -21 -9 -40 -15 -42 -7 -2 -33 -9 -59 -16 -35 -10 -48 -19 -50 -34 -2
-16 -12 -21 -48 -23 -50 -4 -70 -16 -70 -42 0 -11 -10 -20 -27 -23 -95 -19
-98 -20 -103 -62 -5 -39 -7 -40 -50 -47 -77 -11 -98 -19 -103 -39 -5 -19 -12
-23 -59 -33 -18 -4 -28 -14 -30 -29 -3 -19 -11 -23 -66 -29 -97 -11 -102 -14
-102 -57 l0 -38 -50 -7 c-69 -9 -80 -15 -80 -41 0 -20 -6 -24 -47 -28 -89 -10
-113 -18 -113 -38 0 -12 -9 -21 -27 -25 -16 -3 -38 -10 -51 -15 -13 -5 -38 -9
-57 -9 -32 0 -34 -2 -37 -37 -3 -34 -6 -38 -38 -45 -80 -16 -90 -20 -90 -39 0
-20 -9 -23 -110 -36 -56 -7 -65 -11 -68 -30 -3 -18 -12 -22 -65 -28 -99 -10
-117 -15 -117 -33 0 -21 -59 -41 -146 -49 l-64 -6 0 -33 c0 -40 -8 -45 -90
-59 -56 -9 -65 -14 -68 -33 -3 -17 -10 -22 -35 -22 -18 0 -67 -5 -109 -12 -66
-10 -77 -14 -80 -32 -2 -15 -11 -22 -33 -24 -16 -1 -67 -7 -112 -13 l-82 -11
-3 -36 c-3 -41 -6 -42 -160 -57 -58 -6 -68 -9 -68 -26 0 -11 -9 -21 -22 -24
-23 -5 -192 -25 -215 -25 -7 0 -13 -9 -13 -19 0 -17 -10 -20 -67 -26 -182 -17
-178 -16 -181 -57 l-3 -37 -62 -5 c-34 -3 -102 -8 -151 -12 -72 -5 -89 -9 -93
-23 -4 -14 -29 -20 -146 -34 -78 -10 -168 -17 -199 -17 -50 0 -58 -3 -58 -19
0 -15 -10 -20 -52 -25 -56 -7 -354 -26 -400 -26 -25 0 -28 -4 -28 -34 0 -33
-2 -35 -42 -40 -24 -4 -149 -11 -278 -16 -301 -13 -370 -19 -370 -36 0 -24
-131 -28 -925 -28 -798 0 -925 4 -925 29 0 8 -8 16 -17 19 -10 3 -139 10 -288
16 -148 6 -276 13 -282 15 -7 2 -13 20 -13 38 l0 34 -97 6 c-54 4 -149 10
-211 13 -105 6 -114 9 -122 29 -8 21 -16 22 -147 29 -223 11 -265 17 -270 36
-6 21 -24 24 -230 41 l-153 13 0 32 c0 18 -4 35 -9 38 -5 3 -63 11 -130 18
-102 10 -121 15 -121 29 0 17 -38 25 -222 44 -46 5 -58 10 -58 24 0 18 -36 26
-197 47 -41 6 -43 8 -43 40 0 37 -3 38 -92 49 -128 14 -138 17 -138 35 0 21
-15 26 -142 42 -82 10 -98 15 -98 30 0 17 -5 19 -110 36 -43 7 -45 9 -48 45
-3 36 -4 37 -45 38 -23 1 -71 6 -107 13 -54 9 -66 15 -68 32 -3 19 -12 22 -78
28 -90 8 -104 13 -104 35 0 19 -53 35 -152 46 -48 5 -58 10 -58 26 0 12 -9 21
-27 25 -16 3 -41 10 -57 15 -16 5 -44 9 -62 9 -31 0 -33 2 -36 37 -3 37 -3 37
-70 52 -54 12 -68 19 -70 35 -3 23 -34 33 -110 35 -44 1 -48 3 -48 26 0 26 -1
26 -90 42 -43 8 -45 10 -50 48 -5 39 -6 40 -55 47 -84 11 -105 19 -105 39 0
12 -10 21 -27 25 -56 12 -63 16 -63 34 0 14 -10 19 -42 23 -24 3 -59 9 -78 14
-31 8 -36 13 -40 48 -4 35 -9 40 -40 48 -19 5 -54 11 -77 14 -33 4 -43 9 -43
23 0 10 -8 21 -17 23 -101 27 -113 32 -113 49 0 23 -16 31 -70 38 -44 5 -45 6
-48 43 -2 21 -9 40 -15 42 -7 2 -33 9 -59 16 -35 10 -48 19 -50 34 -2 16 -12
21 -48 23 -50 4 -70 16 -70 43 0 13 -7 19 -23 19 -13 0 -27 4 -32 9 -6 5 -21
11 -35 13 -21 2 -26 10 -30 43 -5 40 -5 40 -55 45 -42 4 -50 9 -55 29 -4 17
-15 27 -37 33 -18 5 -35 13 -38 18 -3 6 -15 10 -26 10 -12 0 -19 7 -19 20 0
20 -16 27 -75 32 -26 3 -30 7 -33 38 -4 44 -16 58 -50 62 -19 2 -28 10 -30 26
-2 15 -10 22 -26 22 -13 0 -29 7 -36 15 -7 8 -23 15 -36 15 -17 0 -24 6 -24
19 0 26 -19 39 -65 43 -39 3 -40 4 -43 46 -3 36 -6 42 -25 42 -31 0 -44 11
-48 40 -3 18 -11 26 -29 28 -33 5 -50 20 -50 43 0 15 -8 19 -39 19 -22 0 -44
6 -51 15 -7 8 -20 15 -29 15 -9 0 -21 10 -26 23 -6 13 -21 23 -37 25 -25 3
-28 7 -28 41 0 46 -13 58 -65 63 -35 3 -40 6 -43 30 -3 22 -10 30 -35 36 -22
6 -33 16 -37 33 -4 17 -14 25 -35 29 -27 5 -30 10 -35 50 -5 44 -6 45 -45 48
-46 4 -65 17 -65 43 0 11 -7 19 -17 19 -26 1 -53 24 -53 47 0 13 -10 22 -32
28 -30 9 -33 14 -36 53 -3 41 -4 42 -41 42 -40 0 -61 14 -61 42 0 11 -7 18
-18 18 -23 0 -52 30 -52 53 0 10 -8 17 -18 17 -28 0 -52 32 -52 68 0 30 -3 32
-33 32 -36 0 -67 25 -67 53 0 10 -8 17 -18 17 -25 0 -42 19 -42 47 0 18 -6 23
-25 23 -29 0 -45 26 -45 74 0 35 -1 36 -39 36 -40 0 -56 11 -62 45 -3 11 -15
22 -29 25 -18 4 -26 14 -28 33 -3 21 -9 27 -26 27 -31 0 -44 17 -48 65 -2 32
-7 40 -27 45 -17 4 -27 15 -33 37 -7 29 -13 32 -50 35 -38 3 -43 6 -50 36 -7
25 -14 32 -33 32 -22 0 -25 4 -25 38 -1 44 -19 72 -49 72 -15 0 -21 6 -21 24
0 13 -7 29 -15 36 -8 7 -15 21 -15 31 0 15 -7 19 -33 19 -39 0 -57 15 -57 47
0 16 -6 23 -19 23 -26 0 -39 19 -43 65 -2 32 -7 40 -28 45 -17 4 -26 14 -28
30 -6 38 -21 50 -63 50 -35 0 -39 3 -39 24 0 14 -4 28 -10 31 -5 3 -10 24 -10
45 0 32 -4 39 -22 42 -16 2 -26 14 -34 38 -8 23 -19 36 -35 40 -17 4 -25 14
-27 32 -4 34 -19 46 -62 50 -33 3 -35 5 -42 48 -12 82 -19 99 -42 102 -14 2
-25 14 -32 38 -8 23 -19 36 -35 40 -20 5 -25 13 -29 55 l-5 50 -42 3 c-38 3
-43 6 -43 27 0 13 -4 27 -10 30 -5 3 -10 19 -10 36 0 24 -4 29 -25 29 -26 0
-31 12 -37 75 -2 23 -9 31 -26 33 -13 2 -25 9 -27 15 -2 7 -9 33 -16 60 -12
43 -16 47 -45 47 -40 0 -52 15 -56 70 -2 38 -7 46 -25 48 -16 2 -23 10 -23 26
0 12 -4 26 -9 32 -5 5 -11 20 -13 34 -2 15 -11 26 -23 29 -27 5 -35 19 -35 62
0 44 -15 59 -57 59 -25 0 -33 4 -33 18 0 40 -28 97 -49 100 -13 2 -23 13 -27
30 -12 55 -16 62 -34 62 -13 0 -19 10 -23 38 -14 97 -22 117 -45 120 -28 4
-31 11 -40 93 l-7 64 -40 5 c-42 5 -43 8 -62 102 -3 18 -12 28 -27 30 -17 2
-22 12 -28 53 -11 84 -19 104 -41 107 -13 2 -23 11 -25 23 -9 63 -11 65 -52
65 -40 0 -40 0 -40 39 0 22 -4 43 -10 46 -5 3 -10 19 -10 36 0 24 -4 29 -23
29 -29 0 -47 18 -47 47 0 15 -6 23 -18 23 -28 0 -42 21 -42 62 l0 38 -44 0
c-45 0 -61 11 -68 45 -2 14 -15 22 -48 28 -84 15 -90 17 -90 35 0 15 -15 20
-97 30 -123 15 -408 16 -508 1 -62 -9 -75 -15 -75 -30 0 -21 -13 -25 -102 -34
-63 -6 -68 -8 -68 -31 0 -18 -7 -25 -27 -30 -16 -3 -33 -7 -40 -9 -6 -2 -13
-23 -15 -47 -3 -39 -6 -43 -33 -48 -21 -4 -31 -12 -35 -30 -5 -21 -12 -25 -48
-28 -36 -3 -43 -7 -48 -30 -9 -36 -23 -52 -45 -52 -15 0 -19 -7 -19 -36 0 -44
-15 -74 -38 -74 -17 0 -28 -28 -47 -112 -4 -24 -10 -28 -39 -28 -32 0 -34 -2
-39 -42 -4 -24 -11 -63 -16 -88 -6 -25 -10 -75 -11 -112 0 -60 -2 -68 -19 -68
-29 0 -34 -38 -34 -300 0 -287 8 -380 32 -380 15 0 19 -21 30 -162 19 -245 17
-238 57 -238 39 0 40 -2 48 -135 9 -136 15 -165 37 -165 14 0 19 -7 19 -31 0
-16 5 -73 12 -126 9 -76 15 -97 29 -100 11 -3 18 -19 23 -51 3 -26 10 -69 15
-97 5 -27 10 -78 10 -112 l1 -62 37 -3 c35 -3 38 -6 46 -43 5 -22 11 -66 14
-97 4 -49 8 -57 26 -60 19 -3 23 -12 29 -68 12 -113 17 -130 38 -130 19 0 19
0 36 -137 8 -70 13 -83 34 -83 15 0 20 -10 25 -57 3 -32 11 -82 17 -110 11
-51 13 -53 44 -53 31 0 33 -2 43 -52 6 -29 12 -71 13 -93 2 -32 7 -41 24 -43
21 -3 34 -47 51 -179 4 -33 9 -43 23 -43 19 0 24 -14 35 -92 7 -48 7 -48 46
-48 43 0 43 0 54 -104 6 -68 10 -76 34 -76 19 0 31 -40 31 -110 0 -42 8 -56
35 -61 14 -3 21 -16 27 -49 15 -90 15 -90 57 -90 l39 0 7 -67 c9 -90 13 -103
35 -103 18 0 22 -11 38 -90 5 -25 13 -36 29 -38 17 -3 22 -12 26 -45 3 -23 9
-58 14 -77 8 -31 13 -36 48 -40 37 -5 40 -7 47 -45 4 -22 7 -57 7 -77 1 -33 4
-38 25 -38 15 0 27 -7 29 -17 26 -95 32 -111 51 -119 15 -6 22 -20 24 -44 5
-74 9 -80 51 -80 36 0 39 -3 45 -32 4 -18 9 -45 12 -60 4 -18 14 -28 28 -30
17 -2 22 -11 24 -48 2 -25 7 -49 13 -54 5 -6 9 -20 9 -32 0 -16 7 -24 22 -26
16 -2 26 -14 34 -38 10 -31 16 -36 50 -40 38 -5 39 -6 42 -50 2 -25 7 -49 13
-54 5 -6 9 -20 9 -33 0 -16 6 -23 20 -23 21 0 24 -4 34 -52 5 -21 12 -28 30
-28 21 0 25 -6 29 -42 13 -103 15 -107 61 -110 37 -3 41 -6 44 -33 5 -37 19
-55 43 -55 13 0 19 -7 19 -24 0 -14 4 -28 10 -31 5 -3 10 -26 10 -51 0 -40 2
-44 25 -44 26 0 29 -4 39 -52 5 -21 12 -28 31 -28 19 0 25 -5 25 -21 0 -39 19
-59 55 -59 33 0 35 -2 35 -32 0 -18 7 -42 15 -52 8 -11 15 -28 15 -37 0 -11 9
-19 23 -21 15 -2 25 -14 33 -38 8 -23 19 -36 35 -40 18 -4 25 -14 27 -35 6
-70 10 -75 52 -75 32 0 40 -4 40 -18 0 -25 28 -62 48 -62 19 0 42 -60 42 -109
0 -25 4 -30 28 -33 21 -2 28 -9 30 -30 4 -34 18 -46 61 -50 30 -3 36 -8 43
-35 7 -26 14 -33 33 -33 22 0 25 -4 25 -37 1 -45 19 -73 49 -73 15 0 21 -6 21
-23 0 -33 19 -47 62 -47 34 0 38 -3 38 -24 0 -14 4 -28 10 -31 5 -3 10 -24 10
-46 0 -34 3 -39 23 -39 29 0 47 -18 47 -47 0 -18 6 -23 25 -23 19 0 26 -7 33
-32 7 -29 13 -33 47 -36 52 -5 65 -17 65 -63 0 -31 4 -39 19 -39 22 0 37 -17
43 -45 2 -11 12 -21 23 -23 28 -6 45 -21 45 -43 0 -15 7 -19 34 -19 38 0 66
-21 66 -51 0 -12 7 -19 19 -19 30 0 51 -28 51 -66 0 -26 4 -34 18 -34 23 0 52
-30 52 -53 0 -13 9 -17 38 -17 43 0 62 -14 62 -47 0 -17 6 -23 23 -23 32 0 47
-18 47 -57 0 -26 4 -33 19 -33 10 0 24 -7 31 -15 7 -8 23 -15 36 -15 19 0 24
-5 24 -25 0 -28 25 -45 69 -45 24 0 31 -4 31 -19 0 -23 17 -38 50 -43 22 -3
26 -9 30 -48 5 -40 8 -45 35 -50 21 -4 31 -12 35 -30 5 -21 13 -26 45 -28 45
-4 65 -17 65 -41 0 -10 13 -21 32 -26 30 -9 33 -14 36 -52 3 -38 6 -43 27 -43
13 0 27 -4 30 -10 3 -5 24 -10 46 -10 31 0 39 -4 39 -19 0 -23 17 -38 50 -43
16 -2 26 -11 30 -28 4 -17 14 -26 30 -28 38 -6 50 -21 50 -62 0 -37 1 -38 43
-43 85 -11 107 -19 107 -37 0 -22 18 -37 50 -42 16 -2 26 -11 30 -28 5 -21 13
-26 45 -28 51 -4 65 -17 65 -56 0 -29 4 -33 48 -45 26 -7 52 -14 59 -16 6 -2
13 -14 15 -27 2 -17 10 -24 33 -26 57 -5 74 -12 77 -33 3 -21 60 -49 101 -49
13 0 17 -9 17 -39 0 -43 10 -51 63 -51 39 0 54 -9 58 -35 3 -15 17 -22 54 -30
61 -12 75 -21 75 -44 0 -19 21 -27 107 -38 33 -4 43 -9 45 -26 2 -13 11 -23
23 -25 63 -9 65 -11 65 -51 0 -43 1 -43 115 -59 41 -6 51 -11 53 -28 3 -18 15
-24 63 -35 50 -11 59 -16 59 -35 0 -26 10 -30 102 -39 l67 -6 3 -42 c3 -45 7
-47 121 -64 22 -3 37 -11 37 -19 0 -19 28 -32 88 -40 42 -5 51 -10 54 -28 2
-17 12 -22 53 -28 130 -19 125 -16 125 -58 0 -36 2 -38 37 -45 21 -3 62 -9 90
-12 41 -4 53 -9 53 -22 0 -16 29 -28 112 -46 18 -3 28 -12 28 -23 0 -15 14
-20 72 -29 139 -22 138 -21 138 -58 0 -36 13 -45 60 -45 16 0 52 -5 80 -11 37
-8 50 -15 50 -28 0 -15 14 -20 69 -30 39 -6 86 -11 106 -11 28 0 37 -5 44 -24
8 -20 20 -25 86 -35 42 -6 91 -11 110 -11 34 0 35 -1 35 -38 l0 -38 83 -12
c46 -7 98 -12 115 -12 25 0 35 -6 41 -23 8 -20 20 -25 99 -35 49 -7 101 -12
116 -12 19 0 29 -7 35 -24 9 -21 17 -24 103 -30 51 -4 116 -9 145 -13 51 -6
52 -6 55 -42 l3 -36 65 -7 c36 -5 100 -11 143 -14 66 -5 77 -8 77 -24 0 -23
14 -27 120 -35 184 -13 200 -15 200 -36 0 -13 7 -19 23 -19 12 0 103 -7 202
-15 99 -8 181 -15 183 -15 1 0 2 -15 2 -34 l0 -34 58 -6 c31 -3 109 -8 172
-11 220 -11 250 -15 250 -36 0 -16 8 -19 48 -19 26 0 182 -7 347 -15 165 -8
312 -15 328 -15 17 0 27 -5 27 -15 0 -8 10 -17 23 -19 54 -12 865 -26 1437
-26 593 0 1569 15 1618 26 12 2 22 10 22 17 0 10 92 17 403 30 221 10 410 18
420 17 10 0 17 7 17 18 0 17 19 19 223 30 122 7 264 15 315 18 l92 6 0 33 0
33 63 6 c78 7 366 26 390 26 10 0 17 8 17 20 0 14 7 20 23 21 12 1 96 6 187
12 159 12 165 13 168 35 2 15 10 22 25 23 37 1 249 18 315 25 62 7 62 7 62 39
0 31 2 33 48 39 26 3 88 9 137 12 118 7 132 10 138 33 5 20 23 23 210 37 73 5
87 9 87 23 0 14 21 20 138 34 75 10 149 17 165 17 25 0 27 3 27 39 l0 38 106
13 c84 10 107 16 111 29 3 13 31 20 136 34 73 9 144 17 160 17 20 0 27 5 27
20 0 12 8 21 23 25 59 13 144 25 174 25 31 0 33 2 33 35 0 28 4 36 23 40 59
13 144 25 174 25 26 0 33 4 33 19 0 22 11 26 85 36 73 9 85 14 85 36 0 14 7
19 28 19 15 0 64 5 110 12 l82 11 0 39 0 38 43 1 c23 0 74 6 112 12 59 11 70
16 73 34 3 18 12 22 55 27 104 10 126 17 129 39 3 18 14 23 73 34 39 6 87 12
108 12 36 1 37 2 37 40 0 45 9 51 78 51 54 0 68 7 73 35 4 17 15 21 74 28 87
9 95 12 95 36 0 20 19 27 120 39 54 7 55 7 58 43 3 33 6 36 49 47 25 7 72 15
104 19 49 5 58 9 61 27 2 15 13 23 43 29 22 4 52 10 68 14 18 3 27 12 27 24 0
20 6 22 105 36 51 7 60 11 63 29 3 23 17 27 120 40 40 6 42 8 42 39 0 40 7 45
79 60 43 8 57 15 60 30 5 27 19 35 63 35 49 0 68 9 68 30 0 15 11 20 48 26 68
10 82 19 82 58 0 37 8 41 105 54 42 6 50 11 55 32 5 22 14 26 63 34 50 8 57
12 57 32 0 26 17 34 70 34 21 0 42 5 45 10 3 6 15 10 26 10 15 0 19 7 19 35 0
38 20 55 64 55 18 0 25 6 28 23 2 18 12 23 48 29 97 15 109 19 112 41 2 13 12
23 23 25 45 7 65 25 65 58 0 29 3 32 38 37 81 11 106 22 112 47 4 17 14 26 30
28 14 2 29 8 35 13 5 5 28 9 52 9 35 0 43 3 43 19 0 23 17 38 50 43 21 2 26
10 30 43 4 33 9 41 30 43 14 2 29 8 35 13 5 5 26 9 47 9 31 0 38 4 38 19 0 23
12 32 54 40 22 5 32 13 34 29 4 24 7 26 55 36 24 6 27 11 27 46 0 40 0 40 38
40 21 0 42 4 47 9 6 5 21 11 35 13 17 2 26 10 28 25 2 15 12 25 30 29 48 10
52 13 52 39 0 23 4 25 44 25 25 0 48 5 51 10 3 6 17 10 30 10 21 0 24 5 27 42
3 39 6 43 33 48 21 4 31 12 33 27 4 27 19 40 52 45 17 2 26 10 28 26 3 18 10
22 41 22 22 0 44 6 51 15 7 8 23 15 36 15 16 0 24 6 24 18 0 24 19 42 46 42
20 0 23 6 26 43 l3 42 50 5 c42 4 50 9 55 29 4 16 17 27 40 35 24 8 36 18 38
34 2 13 10 22 21 22 9 0 26 7 37 15 10 8 36 15 56 15 36 0 37 1 40 42 3 39 6
43 33 48 23 4 31 11 34 30 4 29 17 40 48 40 16 0 22 7 25 28 3 24 8 27 43 30
51 4 63 15 67 60 3 31 7 37 36 44 25 7 32 14 32 33 0 20 5 25 23 25 25 0 57
28 57 48 0 7 15 12 35 12 19 0 35 4 35 10 0 5 15 13 33 18 24 6 33 14 35 33 6
58 12 68 39 71 18 2 29 10 31 23 7 33 23 45 63 45 35 0 39 3 39 25 0 19 7 26
33 33 24 6 33 14 35 33 7 59 12 69 38 69 15 0 27 7 30 18 12 39 23 47 65 52
39 4 44 8 47 32 3 21 9 27 30 30 24 3 28 8 32 48 5 41 8 45 35 50 24 4 31 11
35 35 4 24 11 31 35 35 24 4 31 11 35 35 5 27 9 30 50 35 45 5 45 5 50 50 5
41 8 45 35 50 24 4 31 11 35 35 4 24 11 31 32 33 22 3 30 10 36 35 7 29 13 33
53 37 40 5 44 8 49 35 4 24 11 31 33 33 24 3 27 7 27 41 0 40 12 56 45 63 13
2 22 14 25 33 5 27 9 30 50 35 35 4 46 9 48 25 6 28 21 45 43 45 15 0 19 7 19
38 0 43 14 62 47 62 17 0 23 6 23 23 0 33 19 47 62 47 33 0 38 3 38 23 0 28
17 47 42 47 14 0 18 8 18 39 0 22 6 44 15 51 8 7 15 21 15 31 0 12 7 19 18 19
25 0 42 19 42 47 0 20 5 23 40 23 45 0 60 18 60 74 0 30 3 35 28 38 20 2 28 9
30 28 5 32 20 50 41 50 10 0 21 13 26 33 9 29 14 32 53 35 41 3 42 4 42 41 0
37 23 71 48 71 7 0 12 8 12 19 0 10 7 24 15 31 8 7 15 23 15 36 0 17 6 24 19
24 26 0 39 19 43 65 3 39 4 40 48 45 40 5 45 8 50 35 4 21 12 31 30 35 17 4
26 14 28 30 2 14 8 29 13 35 5 5 9 26 9 47 0 30 4 38 18 38 25 0 42 19 42 47
0 16 6 23 19 23 23 0 38 17 43 50 3 22 9 25 45 28 37 3 44 7 49 30 9 36 23 52
45 52 16 0 19 8 19 44 0 25 5 48 10 51 6 3 10 17 10 31 0 19 5 24 25 24 19 0
26 7 31 28 11 50 13 52 54 52 l40 0 0 43 c0 46 13 67 42 67 12 0 18 8 18 23 0
13 4 27 9 32 5 6 11 21 13 35 2 16 11 26 28 30 19 4 26 13 28 35 6 69 10 75
50 75 36 0 38 2 51 48 7 26 14 52 16 59 2 6 14 13 27 15 17 2 24 10 26 33 5
57 12 74 33 77 21 3 49 60 49 101 0 13 9 17 39 17 46 0 54 9 61 70 4 36 9 46
26 48 14 2 24 12 28 30 3 15 8 42 12 60 5 25 11 32 30 32 25 0 31 14 36 80 3
32 6 35 41 40 35 4 40 9 53 45 7 22 14 48 14 58 0 10 8 17 19 17 27 0 39 20
43 70 2 38 7 46 26 48 13 2 22 10 22 20 0 9 7 35 14 57 12 36 18 41 52 45 33
4 39 9 45 36 8 42 17 54 38 54 15 0 19 11 24 60 8 72 21 100 46 100 19 0 24
13 39 110 7 44 8 45 47 50 l40 5 9 57 c7 47 12 57 29 60 25 3 34 27 42 110 5
49 9 57 28 60 19 3 23 12 30 73 13 106 15 115 36 115 15 0 20 13 30 75 6 42
11 99 11 128 0 29 3 76 6 105 7 51 8 52 39 52 l32 0 7 77 c8 97 8 237 0 297
-6 44 -8 46 -40 46 -19 0 -34 3 -34 8 -9 174 -20 331 -25 345 -4 9 -16 17 -26
17 -15 0 -19 8 -20 38 0 20 -6 71 -12 112 -10 64 -15 75 -33 78 -19 3 -22 12
-28 72 -8 86 -12 98 -39 102 -19 3 -23 12 -30 63 -15 109 -13 105 -57 105 -31
0 -40 4 -40 18 -1 41 -28 97 -52 102 -19 5 -24 14 -28 55 -4 42 -8 50 -30 55
-17 4 -26 14 -28 30 -6 38 -21 50 -63 50 -34 0 -39 3 -39 23 0 28 -17 47 -42
47 -14 0 -18 8 -18 38 0 43 -14 62 -47 62 -18 0 -23 6 -23 24 0 13 -7 29 -15
36 -8 7 -15 21 -15 31 0 14 -7 19 -27 19 -14 0 -44 8 -64 18 -33 14 -39 22
-39 49 0 34 -29 63 -62 63 -11 0 -18 7 -18 19 0 26 -19 39 -65 43 -32 2 -40 7
-45 28 -4 17 -14 26 -30 28 -32 5 -50 20 -50 42 0 18 -22 26 -107 37 -42 5
-43 6 -43 43 0 40 0 40 -62 54 -18 4 -28 13 -28 24 0 18 -59 42 -104 42 -37 0
-56 10 -56 30 0 11 -10 20 -27 23 -95 19 -98 20 -103 62 l-5 40 -75 7 c-92 10
-100 12 -100 36 0 20 -12 22 -232 48 -38 5 -48 10 -48 24 0 15 -11 19 -67 25
-38 3 -95 9 -128 13 l-60 7 -3 36 -3 36 -121 6 c-120 7 -566 6 -685 0z"/>
<path d="M2040 16666 l0 -34 -87 -6 c-49 -4 -132 -11 -186 -16 -54 -6 -120
-10 -147 -10 -43 0 -49 -3 -52 -22 -3 -24 -25 -31 -130 -45 -38 -4 -48 -9 -48
-24 0 -19 -6 -21 -85 -37 -37 -7 -40 -10 -45 -47 -5 -37 -7 -40 -40 -43 -67
-5 -80 -11 -80 -37 0 -19 -5 -25 -23 -25 -13 0 -27 -4 -32 -9 -6 -5 -21 -11
-35 -13 -16 -2 -26 -11 -30 -28 -5 -21 -13 -26 -50 -30 -45 -5 -45 -5 -50 -50
-4 -40 -8 -45 -34 -50 -23 -4 -32 -12 -38 -37 -6 -25 -14 -32 -36 -35 -21 -2
-28 -9 -32 -33 -5 -27 -9 -30 -50 -35 -41 -5 -45 -7 -48 -35 -5 -59 -12 -75
-32 -75 -12 0 -20 -7 -20 -17 0 -10 -7 -27 -15 -37 -8 -11 -15 -30 -15 -43 0
-18 -6 -23 -25 -23 -19 0 -26 -7 -31 -27 -10 -49 -13 -53 -33 -53 -15 0 -20
-9 -24 -42 -3 -24 -9 -59 -14 -78 -8 -31 -13 -35 -45 -38 -43 -4 -47 -11 -56
-110 -6 -58 -10 -67 -28 -70 -22 -3 -29 -25 -51 -174 -3 -23 -11 -38 -23 -41
-14 -4 -20 -23 -29 -108 -7 -57 -13 -111 -14 -119 -1 -10 -15 -16 -38 -18
l-37 -3 -7 -132 c-3 -73 -10 -168 -16 -212 -5 -44 -9 -105 -9 -137 0 -45 -3
-58 -15 -58 -12 0 -15 -19 -15 -115 0 -92 3 -115 14 -115 11 0 16 -20 20 -77
3 -43 11 -125 16 -183 6 -58 10 -131 10 -162 l0 -57 37 -3 38 -3 11 -65 c7
-36 12 -86 13 -112 1 -40 4 -47 24 -50 19 -3 23 -12 32 -68 9 -56 14 -65 35
-70 23 -5 26 -12 33 -75 10 -92 10 -93 53 -97 32 -3 38 -7 48 -38 8 -24 18
-36 34 -38 18 -3 22 -10 22 -41 0 -22 6 -44 15 -51 8 -7 15 -23 15 -36 0 -17
6 -24 19 -24 22 0 37 -17 43 -45 2 -11 12 -21 23 -23 34 -7 45 -23 45 -63 0
-38 1 -39 38 -39 41 0 62 -14 62 -42 0 -11 7 -18 18 -18 10 0 27 -7 38 -15 10
-8 27 -15 37 -15 10 0 17 -8 17 -20 0 -25 29 -40 79 -40 40 0 40 0 43 -42 l3
-43 60 -10 c51 -9 60 -13 65 -35 5 -23 12 -26 74 -32 85 -8 96 -13 96 -37 0
-17 9 -20 68 -26 99 -9 112 -13 112 -34 0 -20 54 -31 228 -46 l72 -7 0 -33 c0
-37 -15 -33 193 -56 93 -10 107 -14 107 -30 0 -14 7 -19 27 -19 15 0 85 -8
155 -17 106 -14 128 -19 128 -33 0 -15 21 -19 153 -29 243 -19 237 -17 237
-56 l0 -33 68 -7 c37 -3 103 -10 146 -15 44 -6 103 -10 133 -10 45 0 53 -3 53
-19 0 -19 26 -23 302 -47 52 -4 67 -9 71 -23 4 -15 21 -19 118 -25 63 -5 157
-11 209 -15 l95 -6 3 -36 3 -36 92 -6 c51 -4 152 -10 225 -13 126 -7 134 -8
142 -29 8 -21 16 -23 137 -29 362 -18 353 -17 353 -36 0 -21 35 -26 270 -35
80 -3 171 -8 203 -12 56 -6 57 -6 57 -38 0 -31 2 -33 46 -39 26 -3 77 -6 113
-6 36 0 153 -5 259 -12 168 -10 192 -13 192 -28 0 -15 26 -18 218 -28 119 -7
249 -12 288 -12 39 0 99 -3 133 -6 50 -6 61 -10 61 -25 0 -16 8 -19 43 -19 36
-1 658 -28 665 -29 1 -1 2 -17 2 -36 0 -34 1 -35 43 -35 33 -1 735 -28 745
-30 1 0 2 -9 2 -20 0 -19 7 -20 118 -20 115 0 488 -13 770 -26 105 -5 142 -10
142 -20 0 -8 21 -14 63 -18 79 -7 736 -26 883 -26 61 0 132 -3 158 -6 42 -6
46 -9 46 -35 0 -22 6 -30 23 -34 30 -6 747 -25 982 -25 235 0 345 -8 345 -26
0 -8 28 -14 93 -18 134 -9 1154 -26 1549 -26 324 0 338 -1 338 -19 0 -18 19
-19 458 -27 594 -10 4000 -10 4605 0 448 8 467 9 467 27 0 18 14 19 358 19
369 1 1104 14 1415 26 130 5 177 10 177 19 0 21 37 25 227 25 229 0 931 19
961 25 17 4 22 12 22 34 0 29 1 30 63 35 34 3 258 10 497 16 465 12 520 16
520 35 0 9 40 14 143 19 233 11 647 26 725 26 65 0 72 2 72 20 0 15 7 20 28
20 15 0 180 7 367 15 187 8 348 15 358 15 13 0 17 8 17 34 l0 33 68 6 c37 4
144 9 237 12 311 10 355 15 355 35 0 15 15 18 138 24 445 21 542 29 542 46 0
18 -16 17 395 40 88 5 161 9 163 9 1 1 2 16 2 35 l0 34 63 6 c34 3 118 8 187
11 236 10 270 15 270 34 0 20 23 22 304 37 111 6 129 10 133 25 3 11 18 20 41
23 29 5 349 25 409 26 6 0 13 17 15 38 l3 37 100 7 c270 19 267 19 272 39 3
11 14 19 27 19 11 0 93 7 181 15 88 8 168 15 178 15 10 0 17 8 17 19 0 16 10
20 68 25 37 3 127 11 200 17 l132 12 0 32 c0 30 3 33 38 39 20 3 78 9 127 12
138 8 155 12 155 34 0 11 3 20 8 20 39 1 258 21 290 26 32 5 42 11 42 25 0 16
8 19 48 20 26 0 81 6 122 12 l75 12 3 37 c4 42 1 41 112 55 56 7 65 11 68 30
3 19 12 23 60 28 90 10 100 13 104 37 3 22 17 28 100 45 18 3 28 12 30 27 2
16 11 22 38 24 60 5 80 20 80 64 0 34 3 38 24 38 14 0 28 5 31 10 3 6 17 10
30 10 18 0 24 6 27 28 3 25 7 27 51 30 41 3 47 6 47 26 0 28 18 46 47 46 20 0
23 5 23 38 0 42 14 62 42 62 10 0 21 8 24 18 17 52 27 62 63 62 33 0 37 3 49
40 6 22 12 53 12 70 0 23 5 30 19 30 23 0 38 17 43 50 2 17 10 26 24 28 23 3
31 25 41 115 l5 47 39 0 c42 0 42 0 57 90 6 35 12 46 29 48 17 3 22 12 27 55
13 113 17 126 40 129 23 3 30 35 42 211 5 75 8 87 24 87 16 0 19 13 27 98 10
123 10 754 -1 845 -6 55 -11 67 -25 67 -16 0 -19 13 -24 98 -13 203 -18 233
-42 242 -18 7 -23 21 -33 87 -7 43 -12 90 -12 106 0 20 -5 27 -20 27 -24 0
-35 21 -44 83 -7 45 -8 47 -41 47 -40 0 -48 10 -55 70 -4 37 -9 46 -27 48 -16
2 -23 10 -23 26 0 12 -7 31 -15 42 -8 10 -15 29 -15 41 0 15 -7 23 -22 25 -17
2 -24 11 -28 33 -5 27 -9 30 -50 35 -44 5 -45 6 -48 45 -4 46 -17 65 -43 65
-13 0 -19 7 -19 23 0 29 -18 47 -47 47 -16 0 -23 6 -23 19 0 26 -19 39 -65 43
-39 3 -40 4 -43 45 -3 40 -5 43 -43 53 -31 9 -39 15 -39 34 0 25 -15 31 -107
43 -33 4 -42 9 -45 26 -3 19 -13 24 -68 32 l-65 10 -3 38 c-2 21 -9 40 -15 42
-7 1 -58 8 -114 15 -89 11 -103 15 -103 30 0 10 -8 21 -17 24 -10 3 -126 10
-259 17 -186 9 -284 9 -435 0 -288 -17 -309 -20 -309 -41 0 -15 -14 -19 -103
-25 -56 -4 -131 -10 -167 -14 l-65 -6 -3 -37 c-2 -21 -6 -38 -10 -38 -69 -3
-269 -21 -283 -25 -11 -4 -19 -15 -19 -26 0 -16 -7 -19 -52 -19 -29 0 -115 -7
-190 -16 -111 -14 -137 -20 -141 -34 -3 -14 -23 -18 -103 -25 -55 -4 -128 -10
-164 -14 l-65 -6 -3 -36 -3 -36 -112 -7 c-219 -13 -325 -28 -330 -46 -5 -19
-32 -22 -259 -36 -96 -6 -108 -8 -108 -25 0 -22 -21 -26 -180 -34 -63 -3 -143
-8 -177 -11 l-63 -6 0 -34 c0 -20 -5 -34 -12 -34 -7 0 -85 -7 -173 -15 -88 -8
-190 -15 -227 -15 -60 0 -68 -2 -68 -19 0 -14 -10 -20 -47 -25 -39 -6 -342
-25 -405 -26 -11 0 -18 -8 -18 -19 0 -23 -39 -28 -270 -36 -189 -7 -210 -10
-210 -30 0 -7 -4 -16 -8 -19 -4 -2 -100 -9 -212 -15 -113 -6 -229 -14 -257
-17 -53 -5 -53 -6 -53 -40 0 -30 -3 -34 -27 -34 -49 0 -407 -20 -460 -26 -36
-4 -53 -10 -53 -20 0 -20 -14 -21 -333 -34 -159 -6 -295 -14 -303 -17 -8 -3
-14 -11 -14 -19 0 -8 -1 -14 -2 -15 -8 -1 -631 -28 -670 -29 -48 0 -48 0 -48
-34 l0 -33 -92 -7 c-116 -8 -566 -26 -670 -26 -71 0 -78 -2 -78 -20 0 -14 -7
-20 -22 -20 -13 0 -212 -7 -443 -15 -231 -8 -444 -15 -472 -15 -46 0 -53 -3
-53 -20 0 -12 -7 -20 -17 -20 -10 -1 -218 -5 -463 -10 -245 -5 -523 -12 -617
-16 l-173 -7 0 -32 0 -33 -232 -6 c-366 -9 -2210 -26 -2878 -26 -678 0 -2555
17 -2927 26 l-243 6 0 33 0 32 -187 7 c-104 4 -397 11 -653 16 -256 5 -471 10
-477 10 -7 0 -13 9 -13 20 0 16 -7 20 -37 20 -51 0 -696 19 -900 26 -151 6
-163 8 -163 25 0 17 -8 19 -72 19 -108 0 -610 18 -705 26 l-83 6 0 32 0 33
-332 11 c-502 19 -535 21 -541 42 -5 19 -66 24 -392 35 -221 7 -275 13 -275
29 0 9 -25 15 -82 20 -109 9 -438 25 -510 26 l-57 0 -3 38 -3 37 -262 11
c-144 7 -266 15 -272 19 -6 3 -11 12 -11 20 0 10 -26 15 -102 19 -519 29 -518
28 -518 47 0 19 -38 24 -305 34 -175 7 -195 11 -195 36 0 17 -8 19 -82 19 -77
0 -324 15 -445 26 -52 5 -53 6 -53 38 l0 33 -182 12 c-293 19 -308 21 -308 41
0 15 -24 18 -231 30 -210 12 -232 15 -237 32 -2 10 -7 18 -11 19 -37 3 -271
20 -358 25 l-113 7 0 33 c0 19 -1 34 -2 34 -44 7 -351 30 -396 30 -55 0 -65 3
-69 19 -4 15 -17 21 -57 26 -70 8 -276 25 -303 25 -16 0 -23 6 -23 19 0 21
-19 23 -295 41 -82 5 -151 10 -152 10 -2 0 -3 15 -3 34 0 20 -6 36 -14 39 -8
3 -66 8 -128 12 -239 12 -258 15 -258 36 0 10 -4 19 -10 19 -23 0 -268 21
-297 26 -23 3 -33 10 -33 23 0 18 -23 20 -462 48 l-68 5 0 34 0 34 -75 0 -75
0 0 -34z"/>
<path d="M21180 3700 l0 -2130 120 0 120 0 0 750 0 750 274 0 274 0 463 -477
c255 -262 583 -600 728 -750 l264 -273 139 0 c114 0 138 2 131 14 -4 7 -349
365 -766 795 -417 430 -757 786 -755 791 2 4 319 270 706 590 386 321 702 587
702 592 0 4 -70 8 -155 8 l-154 0 -118 -98 c-65 -54 -357 -294 -650 -535
l-532 -437 -275 0 -276 0 0 1270 0 1270 -120 0 -120 0 0 -2130z"/>
<path d="M540 3680 l0 -2130 405 0 405 0 0 670 0 670 209 0 210 0 548 -670
548 -670 463 0 c368 0 462 3 455 13 -6 10 -1099 1309 -1310 1559 l-77 89 675
675 674 674 -531 0 -531 0 -454 -470 -454 -470 -212 0 -213 0 0 1095 0 1095
-405 0 -405 0 0 -2130z"/>
<path d="M31580 5250 l0 -160 175 0 175 0 0 160 0 160 -175 0 -175 0 0 -160z"/>
<path d="M5481 4609 c-283 -30 -556 -121 -764 -255 -90 -59 -224 -189 -281
-274 -84 -125 -140 -275 -152 -411 l-7 -66 334 -83 c184 -45 338 -83 344 -84
5 0 13 26 17 59 17 125 55 209 134 294 65 70 152 118 279 153 72 20 105 22
330 22 277 1 346 -8 462 -64 154 -72 219 -184 242 -413 7 -73 6 -78 -13 -82
-12 -2 -160 -25 -331 -50 -1612 -239 -1985 -432 -1985 -1027 0 -175 37 -301
124 -428 131 -193 375 -329 691 -386 140 -26 480 -25 615 0 401 77 675 275
836 609 26 53 50 97 53 97 3 0 24 -120 45 -267 21 -148 43 -298 49 -335 l9
-68 355 0 354 0 -3 1068 -3 1067 -27 96 c-95 347 -351 597 -748 732 -261 89
-650 128 -959 96z m942 -1691 c-42 -405 -339 -737 -743 -835 -98 -24 -329 -23
-445 2 -221 46 -337 163 -322 325 15 172 169 278 539 374 172 44 882 183 950
185 27 1 27 0 21 -51z"/>
<path d="M14555 4609 c-633 -65 -1079 -377 -1184 -830 -21 -87 -29 -164 -20
-174 3 -3 157 -43 342 -89 l336 -83 6 41 c22 148 64 242 141 320 64 64 140
106 259 142 88 27 96 28 345 28 212 1 267 -2 328 -17 256 -62 366 -199 375
-464 l2 -77 -60 -9 c-33 -4 -206 -30 -385 -58 -1192 -181 -1630 -335 -1799
-633 -125 -219 -112 -575 29 -790 52 -80 155 -180 239 -234 339 -217 947 -254
1366 -83 241 99 429 278 547 521 41 84 53 101 59 85 4 -11 26 -150 49 -310 22
-159 43 -302 46 -317 l6 -28 354 0 354 0 0 1013 c0 1097 -1 1123 -55 1283 -50
149 -120 261 -235 375 -196 195 -475 320 -840 374 -126 19 -480 27 -605 14z
m932 -1713 c-25 -291 -238 -591 -522 -733 -238 -120 -587 -134 -805 -32 -122
57 -180 140 -180 260 0 224 218 340 885 468 347 67 579 109 604 110 24 1 24 0
18 -73z"/>
<path d="M18900 4614 c-297 -37 -557 -162 -731 -353 -77 -84 -167 -219 -221
-333 -24 -48 -46 -88 -49 -88 -3 0 -31 154 -63 343 -32 188 -60 350 -62 360
-5 16 -30 17 -355 17 l-349 0 0 -1505 0 -1505 409 0 410 0 4 803 c5 857 5 863
57 1016 89 266 286 427 584 480 91 16 340 14 437 -5 256 -48 401 -205 455
-494 16 -85 18 -184 22 -947 l3 -853 415 0 415 0 -4 1003 c-4 1087 -3 1064
-62 1284 -113 425 -396 677 -850 758 -87 16 -391 28 -465 19z"/>
<path d="M7676 4538 c5 -17 820 -2564 945 -2955 l11 -33 426 0 427 0 33 88
c185 494 748 1959 752 1957 3 -2 176 -463 385 -1024 l380 -1021 438 0 c240 0
437 2 437 5 0 3 212 675 470 1493 259 819 470 1494 470 1500 0 9 -104 12 -429
12 l-429 0 -9 -37 c-213 -822 -557 -2130 -562 -2135 -3 -4 -175 483 -381 1083
l-375 1089 -399 -2 -400 -3 -375 -1077 c-207 -593 -378 -1072 -382 -1065 -4 6
-127 478 -273 1047 -147 569 -272 1050 -277 1068 l-11 32 -439 0 -440 0 7 -22z"/>
<path d="M25480 4408 c-269 -17 -530 -84 -720 -184 -135 -72 -217 -133 -317
-237 -166 -173 -265 -369 -323 -642 -27 -126 -38 -452 -21 -601 56 -478 261
-810 626 -1019 289 -165 704 -240 1142 -206 453 35 775 170 1024 427 120 125
203 263 268 447 117 333 115 812 -5 1160 -131 378 -404 635 -819 770 -220 72
-551 105 -855 85z m449 -234 c616 -71 955 -369 1058 -929 23 -129 23 -447 -1
-575 -46 -252 -149 -454 -308 -606 -232 -222 -553 -323 -1023 -324 -511 0
-893 151 -1103 438 -140 191 -204 389 -222 689 -32 535 146 927 517 1139 268
152 674 216 1082 168z"/>
<path d="M29155 4403 c-500 -65 -889 -333 -1072 -740 -20 -46 -41 -83 -45 -83
-4 0 -8 14 -8 30 0 41 -28 566 -36 668 l-6 82 -94 0 -94 0 0 -1910 0 -1910
115 0 115 0 2 907 3 907 57 -114 c155 -311 424 -544 749 -650 179 -59 291 -75
529 -74 328 0 535 41 783 153 161 73 364 248 461 398 175 272 255 637 227
1039 -28 410 -145 707 -362 924 -204 204 -503 334 -848 369 -97 10 -409 13
-476 4z m371 -224 c60 -5 156 -21 214 -34 488 -109 757 -390 846 -885 22 -118
25 -446 6 -565 -67 -417 -271 -696 -614 -842 -234 -99 -623 -141 -914 -98
-205 31 -422 114 -568 219 -137 98 -278 269 -345 419 -83 185 -115 346 -115
587 0 191 18 307 70 452 194 538 720 815 1420 747z"/>
<path d="M31637 4354 c-4 -4 -7 -632 -7 -1396 l0 -1388 125 0 125 0 -2 1393
-3 1392 -116 3 c-63 1 -118 -1 -122 -4z"/>
</g>
</svg>
